<?xml version="1.0" encoding="UTF-8"?>
<svg width="102px" height="92px" viewBox="0 0 102 92" version="1.1" xmlns="http://www.w3.org/2000/svg" xmlns:xlink="http://www.w3.org/1999/xlink">
    <!-- Generator: Sketch 51.2 (57519) - http://www.bohemiancoding.com/sketch -->
    <title>Icon Copy 2</title>
    <desc>Created with Sketch.</desc>
    <defs>
        <path d="M27.6003163,44.241681 C26.3093616,35.5822512 27.4692321,27.5614019 31.0799278,20.179133 C34.8088268,12.5551909 41.0457571,5.82881325 49.7907188,0 C58.0366257,5.9482893 63.9948105,12.674667 67.6652733,20.179133 C71.3357362,27.6835991 72.7294636,35.9886164 71.8464557,45.094185 C64.5293866,41.5250867 57.1774743,39.7405375 49.7907188,39.7405375 C42.5007347,39.7405375 35.2446868,41.4786354 28.0225751,44.9548312 C28.6834888,52.734573 30.794079,59.713287 34.3543457,65.8909732 C38.0477234,72.2996304 43.2663618,77.7857835 50.0102607,82.3494325 C42.9915562,88.1429362 35.2546597,91.3281004 26.799571,91.9049251 C18.3444824,92.4817497 9.41129205,90.4338553 0,85.761242 C1.01914074,75.633051 3.85477349,67.1006151 8.50689825,60.1639342 C13.0927408,53.3260852 19.4572135,48.0186675 27.6003163,44.241681 Z M72.0454762,44.415332 C80.5631157,47.6079209 87.1850303,52.727774 91.91122,59.7748915 C96.6374096,66.8220089 99.3336696,75.5962809 100,86.0977076 C90.7349524,90.2776092 81.9411348,92.0836675 73.6185472,91.5158823 C65.2959596,90.9480972 57.4196903,88.0047691 49.9897393,82.6858982 C56.7336382,78.1222492 61.9522766,72.6360961 65.6456543,66.2274389 C69.3390321,59.8187816 71.472306,52.5480794 72.0454762,44.415332 Z" id="path-1"></path>
    </defs>
    <g id="Icon-Copy-2" stroke="none" stroke-width="1" fill="none" fill-rule="evenodd">
        <g id="Group" transform="translate(1.000000, 0.000000)">
            <mask id="mask-2" fill="white">
                <use xlink:href="#path-1"></use>
            </mask>
            <use id="Combined-Shape" stroke="#FFFFFF" fill="#F97E91" xlink:href="#path-1"></use>
        </g>
        <text id="M" transform="translate(20.892305, 74.794229) rotate(-120.000000) translate(-20.892305, -74.794229) " font-family="Roboto-Medium, Roboto" font-size="20" font-weight="400" fill="#FFFFFF">
            <tspan x="11.8923048" y="81.7942286">M</tspan>
        </text>
        <text id="C" font-family="Roboto-Medium, Roboto" font-size="20" font-weight="400" fill="#FFFFFF">
            <tspan x="44" y="32">C</tspan>
        </text>
        <text id="C" transform="translate(77.844860, 73.616982) rotate(125.000000) translate(-77.844860, -73.616982) " font-family="Roboto-Medium, Roboto" font-size="20" font-weight="400" fill="#FFFFFF">
            <tspan x="70.8448596" y="80.6169815">C</tspan>
        </text>
    </g>
</svg>