<?xml version="1.0" encoding="UTF-8"?>
<svg width="300px" height="300px" viewBox="0 0 300 300" version="1.1" xmlns="http://www.w3.org/2000/svg" xmlns:xlink="http://www.w3.org/1999/xlink">
    <!-- Generator: Sketch 51.2 (57519) - http://www.bohemiancoding.com/sketch -->
    <title>techmeme_Cover Copy</title>
    <desc>Created with Sketch.</desc>
    <defs></defs>
    <g id="Landing-Page" stroke="none" stroke-width="1" fill="none" fill-rule="evenodd">
        <g id="Desktop-HD" transform="translate(-961.000000, -324.000000)">
            <g id="Stacked-Group" transform="translate(181.000000, 324.000000)">
                <g id="techmeme_Cover-Copy" transform="translate(780.000000, 0.000000)">
                    <polygon id="Rectangle-6" fill="#1E4B62" fill-rule="evenodd" opacity="0.837444196" points="0 0 300 0 0 300"></polygon>
                    <polygon id="Rectangle-6-Copy" fill="#D7E7EE" fill-rule="evenodd" points="300 0 300 300 0 300"></polygon>
                    <g id="Group-2" stroke-width="1" fill-rule="evenodd" transform="translate(150.000000, 123.500000) rotate(-30.000000) translate(-150.000000, -123.500000) translate(86.000000, 34.000000)" fill="#FFFFFF">
                        <g id="Group">
                            <rect id="Rectangle-7" transform="translate(49.853255, 81.608893) rotate(30.000000) translate(-49.853255, -81.608893) " x="38.1178883" y="2.59075851" width="23.470733" height="158.036269"></rect>
                            <polygon id="Rectangle" transform="translate(50.941737, 30.837158) rotate(-18.000000) translate(-50.941737, -30.837158) " points="5.77632892 28.8913392 81.8401869 13.9756421 96.1071447 29.716802 5.77632892 47.6986729"></polygon>
                        </g>
                        <g id="Group-Copy" transform="translate(76.806674, 99.942286) scale(-1, -1) translate(-76.806674, -99.942286) translate(26.306674, 20.942286)">
                            <rect id="Rectangle-7" transform="translate(50.788419, 83.462066) rotate(30.000000) translate(-50.788419, -83.462066) " x="39.0530526" y="4.17893916" width="23.470733" height="158.566253"></rect>
                            <polygon id="Rectangle" transform="translate(49.719240, 29.391345) rotate(-18.000000) translate(-49.719240, -29.391345) " points="7.15116407 27.4390016 78.8277641 12.4732838 92.2873161 27.3734103 7.15116407 46.3094069"></polygon>
                        </g>
                    </g>
                    <text id="techmeme" font-family="Bungee-Regular, Bungee" font-size="40" font-weight="normal" fill="#1E303F">
                        <tspan x="36" y="267">techmeme</tspan>
                    </text>
                </g>
            </g>
        </g>
    </g>
</svg>